 <svg  version="1.0" xmlns="http://www.w3.org/2000/svg"  width="300.000000pt" height="112.000000pt" viewBox="0 0 300.000000 112.000000"  preserveAspectRatio="xMidYMid meet">  <g transform="translate(0.000000,112.000000) scale(0.100000,-0.100000)" fill="#ff0000" stroke="none"> <path d="M1556 1072 c-8 -13 -26 -133 -26 -174 0 -38 0 -38 -40 -38 -29 0 -40 -4 -40 -15 0 -10 11 -15 35 -15 34 0 35 -1 35 -37 0 -21 -5 -67 -11 -102 -7 -45 -7 -67 1 -75 19 -19 29 8 41 110 l12 101 36 -8 c21 -5 40 -4 45 1 15 15 -4 28 -44 32 l-35 3 3 60 c2 33 7 78 11 100 4 22 6 46 3 53 -4 14 -18 16 -26 4z"/> <path d="M200 1041 c0 -11 15 -31 33 -46 17 -15 86 -80 152 -144 66 -65 143 -133 170 -152 99 -67 235 -193 235 -217 l0 -22 -40 20 c-21 11 -46 20 -55 20 -27 0 -16 -30 17 -48 55 -30 78 -58 78 -97 0 -47 21 -54 61 -21 37 31 54 32 137 6 94 -29 132 -25 132 16 0 2 -33 26 -73 52 -136 89 -216 155 -222 185 -4 16 -5 31 -2 33 3 3 29 -8 58 -24 88 -49 209 -96 220 -85 19 19 -2 38 -64 62 -34 13 -97 42 -139 64 -62 32 -78 45 -78 63 0 34 -19 76 -30 69 -5 -3 -10 -19 -10 -36 0 -34 -3 -35 -38 -11 -15 10 -63 38 -107 62 -44 24 -116 67 -160 95 -44 28 -98 62 -120 75 -22 13 -61 41 -86 62 -50 42 -69 47 -69 19z m330 -231 c14 -10 53 -32 88 -50 34 -18 67 -40 72 -50 5 -10 30 -30 55 -44 25 -15 45 -33 45 -41 0 -22 -7 -19 -53 20 -43 37 -63 45 -53 20 11 -31 -216 140 -235 177 -10 19 -9 19 23 2 18 -9 44 -24 58 -34z m401 -385 c10 7 95 -43 87 -50 -7 -7 -93 18 -106 31 -7 7 -28 18 -47 25 -23 9 -35 19 -35 31 0 17 6 15 45 -12 25 -17 50 -28 56 -25z"/> <path d="M2729 1002 c-51 -44 -141 -103 -294 -194 -98 -57 -359 -174 -487 -216 l-46 -16 -4 -58 c-2 -32 0 -58 3 -58 4 0 10 -21 13 -47 7 -48 24 -103 33 -103 2 0 13 5 24 10 15 8 19 21 19 58 0 65 31 94 125 117 39 9 90 26 115 37 25 11 74 31 109 44 75 29 91 40 91 65 0 24 -19 24 -72 0 -150 -68 -186 -82 -264 -102 -63 -16 -88 -19 -97 -10 -7 7 -8 14 -1 21 5 5 92 43 192 84 281 115 612 321 612 382 0 34 -20 30 -71 -14z m-739 -514 c0 -7 -7 -24 -16 -37 -14 -20 -18 -21 -25 -8 -15 26 -19 91 -7 98 13 8 48 -31 48 -53z"/> <path d="M1036 971 c-6 -8 247 -320 286 -354 14 -12 25 -14 31 -8 7 7 -6 30 -38 68 -26 32 -93 113 -148 181 -95 114 -118 135 -131 113z"/> <path d="M1924 962 c-34 -21 -194 -264 -194 -294 0 -35 27 -18 55 35 16 28 57 92 92 141 34 49 63 97 63 108 0 20 0 21 -16 10z"/> <path d="M1718 563 c-69 -6 -74 -16 -49 -121 12 -49 21 -99 21 -110 0 -27 17 -37 36 -21 11 9 14 27 12 58 l-2 46 47 3 c26 2 47 6 48 10 0 4 2 15 4 25 3 14 -4 17 -45 17 -38 0 -49 4 -53 19 -5 21 24 31 88 31 34 0 61 22 50 40 -6 10 -57 11 -157 3z"/> <path d="M1137 543 c-21 -20 19 -228 43 -228 21 0 24 46 6 107 -15 52 -13 75 4 48 6 -8 10 -23 10 -33 0 -29 59 -104 91 -117 49 -21 56 -11 64 95 4 53 5 98 2 101 -3 3 -15 3 -26 -1 -18 -6 -21 -14 -21 -71 0 -35 -3 -64 -7 -64 -5 0 -26 28 -48 63 -57 89 -96 122 -118 100z"/> <path d="M1453 528 c-17 -21 -74 -208 -68 -218 3 -6 55 -10 115 -10 85 0 112 3 124 16 20 19 20 12 -8 114 -23 84 -36 100 -65 81 -12 -8 -12 -18 2 -68 10 -33 17 -62 17 -66 0 -4 -27 -7 -59 -7 l-60 0 20 57 c23 67 25 113 5 113 -7 0 -18 -6 -23 -12z"/> <path d="M2175 411 c-7 -13 -2 -15 85 -34 68 -15 442 -58 498 -57 35 0 27 28 -10 35 -18 3 -98 12 -178 20 -80 8 -179 20 -220 25 -144 18 -169 20 -175 11z"/> <path d="M429 375 c-184 -22 -209 -27 -209 -46 0 -13 48 -11 202 6 217 26 233 29 233 45 0 21 -16 21 -226 -5z"/> <path d="M1635 208 c-73 -64 9 -164 96 -117 19 10 20 12 4 29 -14 15 -21 17 -36 7 -15 -9 -22 -8 -34 4 -9 9 -13 23 -9 32 7 19 35 22 50 7 7 -7 16 -4 27 8 21 23 8 38 -40 48 -23 4 -36 0 -58 -18z"/> <path d="M1835 208 c-57 -49 -25 -128 51 -128 93 0 100 128 8 146 -24 4 -37 0 -59 -18z m73 -56 c4 -28 -24 -41 -44 -20 -20 20 -7 50 20 46 13 -2 22 -12 24 -26z"/> <path d="M655 150 c0 -65 1 -70 22 -70 17 0 23 7 26 33 l3 32 13 -32 c7 -18 18 -33 25 -33 7 0 20 15 29 33 l16 32 0 -32 c1 -27 5 -33 24 -33 21 0 22 4 22 70 0 69 0 70 -26 70 -20 0 -30 -7 -39 -30 -18 -44 -28 -45 -47 -6 -13 28 -23 36 -42 36 -25 0 -26 -2 -26 -70z"/> <path d="M900 150 l0 -70 65 0 c58 0 65 2 65 20 0 17 -7 20 -40 20 -38 0 -40 2 -40 30 0 28 2 30 40 30 33 0 40 3 40 20 0 18 -7 20 -65 20 l-65 0 0 -70z"/> <path d="M1104 198 c28 -40 28 -46 1 -83 l-27 -35 30 0 c16 0 35 7 43 16 11 14 13 14 21 0 8 -15 68 -23 68 -10 0 3 -11 20 -25 36 l-26 30 26 34 26 34 -28 0 c-16 0 -35 -6 -42 -12 -11 -10 -14 -10 -18 0 -3 6 -18 12 -35 12 -30 0 -30 -1 -14 -22z"/> <path d="M1323 150 l-31 -70 29 0 c19 0 29 5 29 15 0 9 9 15 25 15 14 0 28 -7 31 -15 5 -13 54 -22 54 -10 0 2 -12 34 -27 70 -23 57 -30 65 -53 65 -23 0 -30 -9 -57 -70z"/> <path d="M2025 150 c0 -65 1 -70 22 -70 17 0 22 7 25 33 l3 32 18 -32 c14 -26 24 -33 48 -33 l31 0 -22 35 c-12 19 -17 35 -11 35 16 0 24 40 11 55 -8 10 -32 15 -69 15 l-56 0 0 -70z m85 15 c0 -8 -9 -15 -20 -15 -11 0 -20 7 -20 15 0 8 9 15 20 15 11 0 20 -7 20 -15z"/> <path d="M2230 150 l0 -70 65 0 c58 0 65 2 65 20 0 17 -7 20 -44 20 -42 0 -43 1 -42 30 1 28 3 30 41 30 34 0 41 3 41 20 0 18 -7 20 -63 20 l-63 0 0 -70z"/> </g> </svg> 